<svg width="40" height="40" fill="none" xmlns="http://www.w3.org/2000/svg"><path d="M29.352 28.264a.842.842 0 1 0 0-1.684.842.842 0 0 0 0 1.684zm-18.258-8.906h7.125a.842.842 0 1 0 0-1.685h-7.125a.842.842 0 1 0 0 1.685zm0 2.969h6.383a.842.842 0 0 0 0-1.685h-6.383a.842.842 0 1 0 0 1.685zm0 5.937h6.383a.842.842 0 0 0 0-1.684h-6.383a.842.842 0 1 0 0 1.684zm0-2.969h6.383a.842.842 0 1 0 0-1.684h-6.383a.842.842 0 1 0 0 1.684zm0 5.938h7.125a.842.842 0 1 0 0-1.685h-7.125a.842.842 0 1 0 0 1.685z" fill="#6B47F5" stroke="#6B47F5" stroke-width=".2"/><path d="M39.1 24.453c0-5.092-3.924-9.284-8.906-9.712V6.195a.842.842 0 0 0-.842-.842H25.74v-3.61A.842.842 0 0 0 24.898.9H1.742a.842.842 0 0 0-.842.842V33.36c0 .465.377.843.842.843h4.056v4.056c0 .465.377.842.843.842h8.98a.842.842 0 0 0 0-1.684H7.483V13.717h5.837a.842.842 0 0 0 .842-.842V7.037H28.51v7.704c-4.982.428-8.906 4.62-8.906 9.712s3.924 9.284 8.906 9.713v3.25h-6.208a.842.842 0 0 0 0 1.684h7.05a.842.842 0 0 0 .843-.842v-4.093c4.982-.428 8.906-4.62 8.906-9.712zM2.584 32.517V2.584h21.472v2.77H13.32a.85.85 0 0 0-.595.246l-6.68 6.68a.846.846 0 0 0-.247.595v19.642H2.584zm9.894-20.484H8.674l3.804-3.804v3.804zm16.874 20.484c-4.447 0-8.064-3.617-8.064-8.064 0-4.446 3.617-8.064 8.064-8.064 4.446 0 8.064 3.618 8.064 8.064 0 4.447-3.618 8.064-8.064 8.064z" fill="#6B47F5" stroke="#6B47F5" stroke-width=".2"/><path d="M29.352 17.673a6.787 6.787 0 0 0-6.78 6.78 6.787 6.787 0 0 0 6.78 6.78 6.787 6.787 0 0 0 6.78-6.78 6.787 6.787 0 0 0-6.78-6.78zm0 11.875a5.101 5.101 0 0 1-5.096-5.095 5.101 5.101 0 0 1 5.096-5.095 5.101 5.101 0 0 1 5.095 5.095 5.101 5.101 0 0 1-5.095 5.095z" fill="#6B47F5" stroke="#6B47F5" stroke-width=".2"/><path d="M29.352 20.642a.842.842 0 0 0-.843.842v2.97a.842.842 0 1 0 1.685 0v-2.97a.842.842 0 0 0-.842-.842zM18.96 39.1a.842.842 0 1 0 0-1.684.842.842 0 0 0 0 1.684z" fill="#6B47F5" stroke="#6B47F5" stroke-width=".2"/></svg>